# xmcd
#
# Track frame offsets:
#	150
#	11635
#	21782
#	33206
#	42796
#	53383
#	62854
#	75717
#	87962
#	98497
#	113287
#	126464
#	141231
#	151166
#	166685
#	178256
#	189845
#	198659
#	210247
#	221593
#	233173
#	245375
#	258076
#	267989
#	279119
#
# Disc length: 3861
#
# Revision: 1
# Processed by: cddbd v1.5.1PL0 Copyright (c) Steve Scherf et al.
# Submitted via: dBpowerAMP V4.0
# Normalized: r0:TDELIM( - )
#
DISCID=3e0f1319
DTITLE=Various Artist - 100 Country Hits CD 1
DYEAR=1900
DGENRE=Country
TTITLE0=George Jones - Heartaches By The Number
TTITLE1=Jerry Lee Lewis - I Love You So much It Hurt
TTITLE2=Johnny Cash - Thanks A lot
TTITLE3=Jerry Lee Lewis - Walk Right In
TTITLE4=Don Gibson - On Lonesome Me
TTITLE5=Donna Fargo - Sticks And Stones
TTITLE6=Johnny Cash - Rose Garden
TTITLE7=Johnny Cash - I Walk The line
TTITLE8=Jimmy Rodgers - Kisses Sweeter Than Wine
TTITLE9=Kingston Trio - Tom Dooley
TTITLE10=Kenny Rodgers - Ruby Dont Take Your Love To Town
TTITLE11=Jeannie C. Riley - harper Valley P T A
TTITLE12=Patsy Cline - Heartaches
TTITLE13=George Jones - He Stopped Loving Her Today
TTITLE14=Willie Nelson - Night Wife
TTITLE15=Conway Twitty - Too See An  Angel Cry
TTITLE16=Freddy Fender - Jambalaya
TTITLE17=Frankie Laine - Mule Train
TTITLE18=Johnny Cash - Big River
TTITLE19=Kenny Rodgers - Me And bobby McGee
TTITLE20=Frankie Laine - High Noon
TTITLE21=Lynn Anderson - Top Of The world
TTITLE22=Dolly Paton - Release Me
TTITLE23=Roger Miller - King Of The Road
TTITLE24=Tex Williams - Battle Of New Orleans
EXTD=100 Country Hits CD 1
EXTT0=
EXTT1=
EXTT2=
EXTT3=
EXTT4=
EXTT5=
EXTT6=
EXTT7=
EXTT8=
EXTT9=
EXTT10=
EXTT11=
EXTT12=
EXTT13=
EXTT14=
EXTT15=
EXTT16=
EXTT17=
EXTT18=
EXTT19=
EXTT20=
EXTT21=
EXTT22=
EXTT23=
EXTT24=
PLAYORDER=
